<svg width="32" height="32" viewBox="0 0 32 32" fill="none" xmlns="http://www.w3.org/2000/svg">
<circle cx="16" cy="16" r="16" fill="white"/>
<path d="M12.6484 18.9609L14.7734 18.7031C14.8411 19.2448 15.0234 19.6589 15.3203 19.9453C15.6172 20.2318 15.9766 20.375 16.3984 20.375C16.8516 20.375 17.2318 20.2031 17.5391 19.8594C17.8516 19.5156 18.0078 19.0521 18.0078 18.4688C18.0078 17.9167 17.8594 17.4792 17.5625 17.1562C17.2656 16.8333 16.9036 16.6719 16.4766 16.6719C16.1953 16.6719 15.8594 16.7266 15.4688 16.8359L15.7109 15.0469C16.3047 15.0625 16.7578 14.9349 17.0703 14.6641C17.3828 14.388 17.5391 14.0234 17.5391 13.5703C17.5391 13.1849 17.4245 12.8776 17.1953 12.6484C16.9661 12.4193 16.6615 12.3047 16.2812 12.3047C15.9062 12.3047 15.5859 12.4349 15.3203 12.6953C15.0547 12.9557 14.8932 13.3359 14.8359 13.8359L12.8125 13.4922C12.9531 12.7995 13.1641 12.2474 13.4453 11.8359C13.7318 11.4193 14.1276 11.0938 14.6328 10.8594C15.1432 10.6198 15.7135 10.5 16.3438 10.5C17.4219 10.5 18.2865 10.8438 18.9375 11.5312C19.474 12.0938 19.7422 12.7292 19.7422 13.4375C19.7422 14.4427 19.1927 15.2448 18.0938 15.8438C18.75 15.9844 19.2734 16.2995 19.6641 16.7891C20.0599 17.2786 20.2578 17.8698 20.2578 18.5625C20.2578 19.5677 19.8906 20.4245 19.1562 21.1328C18.4219 21.8411 17.5078 22.1953 16.4141 22.1953C15.3776 22.1953 14.5182 21.8984 13.8359 21.3047C13.1536 20.7057 12.7578 19.9245 12.6484 18.9609Z" fill="#8B0000"/>
</svg>
