<svg width="32" height="32" viewBox="0 0 32 32" fill="none" xmlns="http://www.w3.org/2000/svg">
<circle cx="16" cy="16" r="16" fill="white"/>
<path d="M12.7734 19.3516L14.8984 19.1172C14.9505 19.5495 15.0859 19.8698 15.3047 20.0781C15.5234 20.2865 15.8125 20.3906 16.1719 20.3906C16.625 20.3906 17.0104 20.1823 17.3281 19.7656C17.6458 19.349 17.849 18.4844 17.9375 17.1719C17.3854 17.8125 16.6953 18.1328 15.8672 18.1328C14.9661 18.1328 14.1875 17.7865 13.5312 17.0938C12.8802 16.3958 12.5547 15.4896 12.5547 14.375C12.5547 13.2135 12.8984 12.2786 13.5859 11.5703C14.2786 10.8568 15.1589 10.5 16.2266 10.5C17.388 10.5 18.3411 10.9505 19.0859 11.8516C19.8307 12.7474 20.2031 14.224 20.2031 16.2812C20.2031 18.375 19.8151 19.8854 19.0391 20.8125C18.263 21.7396 17.2526 22.2031 16.0078 22.2031C15.112 22.2031 14.388 21.9661 13.8359 21.4922C13.2839 21.013 12.9297 20.2995 12.7734 19.3516ZM17.7422 14.5547C17.7422 13.8464 17.5781 13.2969 17.25 12.9062C16.9271 12.5156 16.5521 12.3203 16.125 12.3203C15.7188 12.3203 15.3802 12.4818 15.1094 12.8047C14.8438 13.1224 14.7109 13.6458 14.7109 14.375C14.7109 15.1146 14.8568 15.6589 15.1484 16.0078C15.4401 16.3516 15.8047 16.5234 16.2422 16.5234C16.6641 16.5234 17.0182 16.3568 17.3047 16.0234C17.5964 15.6901 17.7422 15.2005 17.7422 14.5547Z" fill="#8B0000"/>
</svg>
