<svg width="32" height="32" viewBox="0 0 32 32" fill="none" xmlns="http://www.w3.org/2000/svg">
<circle cx="16" cy="16" r="16" fill="white"/>
<path d="M12.7578 19.0547L14.9453 18.8281C15.0078 19.3229 15.1927 19.7161 15.5 20.0078C15.8073 20.2943 16.1615 20.4375 16.5625 20.4375C17.0208 20.4375 17.4089 20.2526 17.7266 19.8828C18.0443 19.5078 18.2031 18.9453 18.2031 18.1953C18.2031 17.4922 18.0443 16.9661 17.7266 16.6172C17.4141 16.263 17.0052 16.0859 16.5 16.0859C15.8698 16.0859 15.3047 16.3646 14.8047 16.9219L13.0234 16.6641L14.1484 10.7031H19.9531V12.7578H15.8125L15.4688 14.7031C15.9583 14.4583 16.4583 14.3359 16.9688 14.3359C17.9427 14.3359 18.7682 14.6901 19.4453 15.3984C20.1224 16.1068 20.4609 17.026 20.4609 18.1562C20.4609 19.099 20.1875 19.9401 19.6406 20.6797C18.8958 21.6901 17.862 22.1953 16.5391 22.1953C15.4818 22.1953 14.6198 21.9115 13.9531 21.3438C13.2865 20.776 12.888 20.013 12.7578 19.0547Z" fill="#8B0000"/>
</svg>
