<svg width="32" height="32" viewBox="0 0 32 32" fill="none" xmlns="http://www.w3.org/2000/svg">
<circle cx="16" cy="16" r="16" fill="white"/>
<path d="M20.1641 13.3516L18.0391 13.5859C17.987 13.1484 17.8516 12.8255 17.6328 12.6172C17.4141 12.4089 17.1302 12.3047 16.7812 12.3047C16.3177 12.3047 15.9245 12.513 15.6016 12.9297C15.2839 13.3464 15.0833 14.2135 15 15.5312C15.5469 14.8854 16.2266 14.5625 17.0391 14.5625C17.9557 14.5625 18.7396 14.9115 19.3906 15.6094C20.0469 16.3073 20.375 17.2083 20.375 18.3125C20.375 19.4844 20.0312 20.4245 19.3438 21.1328C18.6562 21.8411 17.7734 22.1953 16.6953 22.1953C15.5391 22.1953 14.5885 21.7474 13.8438 20.8516C13.099 19.9505 12.7266 18.4766 12.7266 16.4297C12.7266 14.3307 13.1146 12.8177 13.8906 11.8906C14.6667 10.9635 15.6745 10.5 16.9141 10.5C17.7839 10.5 18.5026 10.7448 19.0703 11.2344C19.6432 11.7188 20.0078 12.4245 20.1641 13.3516ZM15.1875 18.1406C15.1875 18.8542 15.3516 19.4062 15.6797 19.7969C16.0078 20.1823 16.3828 20.375 16.8047 20.375C17.2109 20.375 17.5495 20.2161 17.8203 19.8984C18.0911 19.5807 18.2266 19.0599 18.2266 18.3359C18.2266 17.5911 18.0807 17.0469 17.7891 16.7031C17.4974 16.3542 17.1328 16.1797 16.6953 16.1797C16.2734 16.1797 15.9167 16.3464 15.625 16.6797C15.3333 17.0078 15.1875 17.4948 15.1875 18.1406Z" fill="#8B0000"/>
</svg>
