<svg width="32" height="32" viewBox="0 0 32 32" fill="none" xmlns="http://www.w3.org/2000/svg">
<circle cx="16" cy="16" r="16" fill="white"/>
<path d="M13.3906 22H11.1953V13.7266C10.3932 14.4766 9.44792 15.0312 8.35938 15.3906V13.3984C8.93229 13.2109 9.55469 12.8568 10.2266 12.3359C10.8984 11.8099 11.3594 11.1979 11.6094 10.5H13.3906V22ZM20.3906 10.5C21.5 10.5 22.3672 10.8958 22.9922 11.6875C23.737 12.625 24.1094 14.1797 24.1094 16.3516C24.1094 18.5182 23.7344 20.0755 22.9844 21.0234C22.3646 21.8047 21.5 22.1953 20.3906 22.1953C19.276 22.1953 18.3776 21.7682 17.6953 20.9141C17.013 20.0547 16.6719 18.526 16.6719 16.3281C16.6719 14.1719 17.0469 12.6198 17.7969 11.6719C18.4167 10.8906 19.2812 10.5 20.3906 10.5ZM20.3906 12.3203C20.125 12.3203 19.888 12.4062 19.6797 12.5781C19.4714 12.7448 19.3099 13.0469 19.1953 13.4844C19.0443 14.0521 18.9688 15.0078 18.9688 16.3516C18.9688 17.6953 19.0365 18.6198 19.1719 19.125C19.3073 19.625 19.4766 19.9583 19.6797 20.125C19.888 20.2917 20.125 20.375 20.3906 20.375C20.6562 20.375 20.8932 20.2917 21.1016 20.125C21.3099 19.9531 21.4714 19.6484 21.5859 19.2109C21.737 18.6484 21.8125 17.6953 21.8125 16.3516C21.8125 15.0078 21.7448 14.0859 21.6094 13.5859C21.474 13.0807 21.3021 12.7448 21.0938 12.5781C20.8906 12.4062 20.6562 12.3203 20.3906 12.3203Z" fill="#8B0000"/>
</svg>
