<svg width="32" height="32" viewBox="0 0 32 32" fill="none" xmlns="http://www.w3.org/2000/svg">
<circle cx="16" cy="16" r="16" fill="white"/>
<path d="M14.6094 15.8203C14.0417 15.5807 13.6276 15.2526 13.3672 14.8359C13.112 14.4141 12.9844 13.9531 12.9844 13.4531C12.9844 12.599 13.2812 11.8932 13.875 11.3359C14.474 10.7786 15.3229 10.5 16.4219 10.5C17.5104 10.5 18.3542 10.7786 18.9531 11.3359C19.5573 11.8932 19.8594 12.599 19.8594 13.4531C19.8594 13.9844 19.7214 14.4583 19.4453 14.875C19.1693 15.2865 18.7812 15.6016 18.2812 15.8203C18.9167 16.0755 19.3984 16.4479 19.7266 16.9375C20.0599 17.4271 20.2266 17.9922 20.2266 18.6328C20.2266 19.6901 19.888 20.5495 19.2109 21.2109C18.5391 21.8724 17.6432 22.2031 16.5234 22.2031C15.4818 22.2031 14.6146 21.9297 13.9219 21.3828C13.1042 20.737 12.6953 19.8516 12.6953 18.7266C12.6953 18.1068 12.849 17.5391 13.1562 17.0234C13.4635 16.5026 13.9479 16.1016 14.6094 15.8203ZM15.0625 13.6094C15.0625 14.0469 15.1849 14.388 15.4297 14.6328C15.6797 14.8776 16.0104 15 16.4219 15C16.8385 15 17.1719 14.8776 17.4219 14.6328C17.6719 14.3828 17.7969 14.0391 17.7969 13.6016C17.7969 13.1901 17.6719 12.862 17.4219 12.6172C17.1771 12.3672 16.8516 12.2422 16.4453 12.2422C16.0234 12.2422 15.6875 12.3672 15.4375 12.6172C15.1875 12.8672 15.0625 13.1979 15.0625 13.6094ZM14.8594 18.5156C14.8594 19.1198 15.013 19.5911 15.3203 19.9297C15.6328 20.2682 16.0208 20.4375 16.4844 20.4375C16.9375 20.4375 17.3125 20.276 17.6094 19.9531C17.9062 19.625 18.0547 19.1536 18.0547 18.5391C18.0547 18.0026 17.9036 17.5729 17.6016 17.25C17.2995 16.9219 16.9167 16.7578 16.4531 16.7578C15.9167 16.7578 15.5156 16.9427 15.25 17.3125C14.9896 17.6823 14.8594 18.0833 14.8594 18.5156Z" fill="#8B0000"/>
</svg>
