<svg width="32" height="32" viewBox="0 0 32 32" fill="none" xmlns="http://www.w3.org/2000/svg">
<circle cx="16" cy="16" r="16" fill="white"/>
<path d="M20.1406 19.9609V22H12.4453C12.5286 21.2292 12.7786 20.5 13.1953 19.8125C13.612 19.1198 14.4349 18.2031 15.6641 17.0625C16.6536 16.1406 17.2604 15.5156 17.4844 15.1875C17.7865 14.7344 17.9375 14.2865 17.9375 13.8438C17.9375 13.3542 17.8047 12.9792 17.5391 12.7188C17.2786 12.4531 16.9167 12.3203 16.4531 12.3203C15.9948 12.3203 15.6302 12.4583 15.3594 12.7344C15.0885 13.0104 14.9323 13.4688 14.8906 14.1094L12.7031 13.8906C12.8333 12.6823 13.2422 11.8151 13.9297 11.2891C14.6172 10.763 15.4766 10.5 16.5078 10.5C17.638 10.5 18.526 10.8047 19.1719 11.4141C19.8177 12.0234 20.1406 12.7812 20.1406 13.6875C20.1406 14.2031 20.0469 14.6953 19.8594 15.1641C19.6771 15.6276 19.3854 16.1146 18.9844 16.625C18.7188 16.9635 18.2396 17.4505 17.5469 18.0859C16.8542 18.7214 16.4141 19.1432 16.2266 19.3516C16.0443 19.5599 15.8958 19.763 15.7812 19.9609H20.1406Z" fill="#8B0000"/>
</svg>
